<?xml version="1.0" encoding="utf-8" standalone="no"?>
<!DOCTYPE svg PUBLIC "-//W3C//DTD SVG 1.1//EN"
  "http://www.w3.org/Graphics/SVG/1.1/DTD/svg11.dtd">
<!-- Created with matplotlib (https://matplotlib.org/) -->
<svg height="262.19625pt" version="1.1" viewBox="0 0 385.78125 262.19625" width="385.78125pt" xmlns="http://www.w3.org/2000/svg" xmlns:xlink="http://www.w3.org/1999/xlink">
 <defs>
  <style type="text/css">
*{stroke-linecap:butt;stroke-linejoin:round;}
  </style>
 </defs>
 <g id="figure_1">
  <g id="patch_1">
   <path d="M 0 262.19625 
L 385.78125 262.19625 
L 385.78125 0 
L 0 0 
z
" style="fill:none;"/>
  </g>
  <g id="axes_1">
   <g id="patch_2">
    <path d="M 43.78125 224.64 
L 378.58125 224.64 
L 378.58125 7.2 
L 43.78125 7.2 
z
" style="fill:#ffffff;"/>
   </g>
   <g id="matplotlib.axis_1">
    <g id="xtick_1">
     <g id="line2d_1">
      <path clip-path="url(#p5783687c64)" d="M 45.164721 224.64 
L 45.164721 7.2 
" style="fill:none;stroke:#b0b0b0;stroke-dasharray:0.4,0.66;stroke-dashoffset:0;stroke-width:0.4;"/>
     </g>
     <g id="line2d_2">
      <defs>
       <path d="M 0 0 
L 0 3.5 
" id="mcaef95e2eb" style="stroke:#000000;stroke-width:0.8;"/>
      </defs>
      <g>
       <use style="stroke:#000000;stroke-width:0.8;" x="45.164721" xlink:href="#mcaef95e2eb" y="224.64"/>
      </g>
     </g>
     <g id="text_1">
      <!-- 0 -->
      <defs>
       <path d="M 31.78125 66.40625 
Q 24.171875 66.40625 20.328125 58.90625 
Q 16.5 51.421875 16.5 36.375 
Q 16.5 21.390625 20.328125 13.890625 
Q 24.171875 6.390625 31.78125 6.390625 
Q 39.453125 6.390625 43.28125 13.890625 
Q 47.125 21.390625 47.125 36.375 
Q 47.125 51.421875 43.28125 58.90625 
Q 39.453125 66.40625 31.78125 66.40625 
z
M 31.78125 74.21875 
Q 44.046875 74.21875 50.515625 64.515625 
Q 56.984375 54.828125 56.984375 36.375 
Q 56.984375 17.96875 50.515625 8.265625 
Q 44.046875 -1.421875 31.78125 -1.421875 
Q 19.53125 -1.421875 13.0625 8.265625 
Q 6.59375 17.96875 6.59375 36.375 
Q 6.59375 54.828125 13.0625 64.515625 
Q 19.53125 74.21875 31.78125 74.21875 
z
" id="DejaVuSans-48"/>
      </defs>
      <g transform="translate(41.983471 239.238437)scale(0.1 -0.1)">
       <use xlink:href="#DejaVuSans-48"/>
      </g>
     </g>
    </g>
    <g id="xtick_2">
     <g id="line2d_3">
      <path clip-path="url(#p5783687c64)" d="M 91.280424 224.64 
L 91.280424 7.2 
" style="fill:none;stroke:#b0b0b0;stroke-dasharray:0.4,0.66;stroke-dashoffset:0;stroke-width:0.4;"/>
     </g>
     <g id="line2d_4">
      <g>
       <use style="stroke:#000000;stroke-width:0.8;" x="91.280424" xlink:href="#mcaef95e2eb" y="224.64"/>
      </g>
     </g>
     <g id="text_2">
      <!-- 10 -->
      <defs>
       <path d="M 12.40625 8.296875 
L 28.515625 8.296875 
L 28.515625 63.921875 
L 10.984375 60.40625 
L 10.984375 69.390625 
L 28.421875 72.90625 
L 38.28125 72.90625 
L 38.28125 8.296875 
L 54.390625 8.296875 
L 54.390625 0 
L 12.40625 0 
z
" id="DejaVuSans-49"/>
      </defs>
      <g transform="translate(84.917924 239.238437)scale(0.1 -0.1)">
       <use xlink:href="#DejaVuSans-49"/>
       <use x="63.623047" xlink:href="#DejaVuSans-48"/>
      </g>
     </g>
    </g>
    <g id="xtick_3">
     <g id="line2d_5">
      <path clip-path="url(#p5783687c64)" d="M 137.396126 224.64 
L 137.396126 7.2 
" style="fill:none;stroke:#b0b0b0;stroke-dasharray:0.4,0.66;stroke-dashoffset:0;stroke-width:0.4;"/>
     </g>
     <g id="line2d_6">
      <g>
       <use style="stroke:#000000;stroke-width:0.8;" x="137.396126" xlink:href="#mcaef95e2eb" y="224.64"/>
      </g>
     </g>
     <g id="text_3">
      <!-- 20 -->
      <defs>
       <path d="M 19.1875 8.296875 
L 53.609375 8.296875 
L 53.609375 0 
L 7.328125 0 
L 7.328125 8.296875 
Q 12.9375 14.109375 22.625 23.890625 
Q 32.328125 33.6875 34.8125 36.53125 
Q 39.546875 41.84375 41.421875 45.53125 
Q 43.3125 49.21875 43.3125 52.78125 
Q 43.3125 58.59375 39.234375 62.25 
Q 35.15625 65.921875 28.609375 65.921875 
Q 23.96875 65.921875 18.8125 64.3125 
Q 13.671875 62.703125 7.8125 59.421875 
L 7.8125 69.390625 
Q 13.765625 71.78125 18.9375 73 
Q 24.125 74.21875 28.421875 74.21875 
Q 39.75 74.21875 46.484375 68.546875 
Q 53.21875 62.890625 53.21875 53.421875 
Q 53.21875 48.921875 51.53125 44.890625 
Q 49.859375 40.875 45.40625 35.40625 
Q 44.1875 33.984375 37.640625 27.21875 
Q 31.109375 20.453125 19.1875 8.296875 
z
" id="DejaVuSans-50"/>
      </defs>
      <g transform="translate(131.033626 239.238437)scale(0.1 -0.1)">
       <use xlink:href="#DejaVuSans-50"/>
       <use x="63.623047" xlink:href="#DejaVuSans-48"/>
      </g>
     </g>
    </g>
    <g id="xtick_4">
     <g id="line2d_7">
      <path clip-path="url(#p5783687c64)" d="M 183.511829 224.64 
L 183.511829 7.2 
" style="fill:none;stroke:#b0b0b0;stroke-dasharray:0.4,0.66;stroke-dashoffset:0;stroke-width:0.4;"/>
     </g>
     <g id="line2d_8">
      <g>
       <use style="stroke:#000000;stroke-width:0.8;" x="183.511829" xlink:href="#mcaef95e2eb" y="224.64"/>
      </g>
     </g>
     <g id="text_4">
      <!-- 30 -->
      <defs>
       <path d="M 40.578125 39.3125 
Q 47.65625 37.796875 51.625 33 
Q 55.609375 28.21875 55.609375 21.1875 
Q 55.609375 10.40625 48.1875 4.484375 
Q 40.765625 -1.421875 27.09375 -1.421875 
Q 22.515625 -1.421875 17.65625 -0.515625 
Q 12.796875 0.390625 7.625 2.203125 
L 7.625 11.71875 
Q 11.71875 9.328125 16.59375 8.109375 
Q 21.484375 6.890625 26.8125 6.890625 
Q 36.078125 6.890625 40.9375 10.546875 
Q 45.796875 14.203125 45.796875 21.1875 
Q 45.796875 27.640625 41.28125 31.265625 
Q 36.765625 34.90625 28.71875 34.90625 
L 20.21875 34.90625 
L 20.21875 43.015625 
L 29.109375 43.015625 
Q 36.375 43.015625 40.234375 45.921875 
Q 44.09375 48.828125 44.09375 54.296875 
Q 44.09375 59.90625 40.109375 62.90625 
Q 36.140625 65.921875 28.71875 65.921875 
Q 24.65625 65.921875 20.015625 65.03125 
Q 15.375 64.15625 9.8125 62.3125 
L 9.8125 71.09375 
Q 15.4375 72.65625 20.34375 73.4375 
Q 25.25 74.21875 29.59375 74.21875 
Q 40.828125 74.21875 47.359375 69.109375 
Q 53.90625 64.015625 53.90625 55.328125 
Q 53.90625 49.265625 50.4375 45.09375 
Q 46.96875 40.921875 40.578125 39.3125 
z
" id="DejaVuSans-51"/>
      </defs>
      <g transform="translate(177.149329 239.238437)scale(0.1 -0.1)">
       <use xlink:href="#DejaVuSans-51"/>
       <use x="63.623047" xlink:href="#DejaVuSans-48"/>
      </g>
     </g>
    </g>
    <g id="xtick_5">
     <g id="line2d_9">
      <path clip-path="url(#p5783687c64)" d="M 229.627531 224.64 
L 229.627531 7.2 
" style="fill:none;stroke:#b0b0b0;stroke-dasharray:0.4,0.66;stroke-dashoffset:0;stroke-width:0.4;"/>
     </g>
     <g id="line2d_10">
      <g>
       <use style="stroke:#000000;stroke-width:0.8;" x="229.627531" xlink:href="#mcaef95e2eb" y="224.64"/>
      </g>
     </g>
     <g id="text_5">
      <!-- 40 -->
      <defs>
       <path d="M 37.796875 64.3125 
L 12.890625 25.390625 
L 37.796875 25.390625 
z
M 35.203125 72.90625 
L 47.609375 72.90625 
L 47.609375 25.390625 
L 58.015625 25.390625 
L 58.015625 17.1875 
L 47.609375 17.1875 
L 47.609375 0 
L 37.796875 0 
L 37.796875 17.1875 
L 4.890625 17.1875 
L 4.890625 26.703125 
z
" id="DejaVuSans-52"/>
      </defs>
      <g transform="translate(223.265031 239.238437)scale(0.1 -0.1)">
       <use xlink:href="#DejaVuSans-52"/>
       <use x="63.623047" xlink:href="#DejaVuSans-48"/>
      </g>
     </g>
    </g>
    <g id="xtick_6">
     <g id="line2d_11">
      <path clip-path="url(#p5783687c64)" d="M 275.743233 224.64 
L 275.743233 7.2 
" style="fill:none;stroke:#b0b0b0;stroke-dasharray:0.4,0.66;stroke-dashoffset:0;stroke-width:0.4;"/>
     </g>
     <g id="line2d_12">
      <g>
       <use style="stroke:#000000;stroke-width:0.8;" x="275.743233" xlink:href="#mcaef95e2eb" y="224.64"/>
      </g>
     </g>
     <g id="text_6">
      <!-- 50 -->
      <defs>
       <path d="M 10.796875 72.90625 
L 49.515625 72.90625 
L 49.515625 64.59375 
L 19.828125 64.59375 
L 19.828125 46.734375 
Q 21.96875 47.46875 24.109375 47.828125 
Q 26.265625 48.1875 28.421875 48.1875 
Q 40.625 48.1875 47.75 41.5 
Q 54.890625 34.8125 54.890625 23.390625 
Q 54.890625 11.625 47.5625 5.09375 
Q 40.234375 -1.421875 26.90625 -1.421875 
Q 22.3125 -1.421875 17.546875 -0.640625 
Q 12.796875 0.140625 7.71875 1.703125 
L 7.71875 11.625 
Q 12.109375 9.234375 16.796875 8.0625 
Q 21.484375 6.890625 26.703125 6.890625 
Q 35.15625 6.890625 40.078125 11.328125 
Q 45.015625 15.765625 45.015625 23.390625 
Q 45.015625 31 40.078125 35.4375 
Q 35.15625 39.890625 26.703125 39.890625 
Q 22.75 39.890625 18.8125 39.015625 
Q 14.890625 38.140625 10.796875 36.28125 
z
" id="DejaVuSans-53"/>
      </defs>
      <g transform="translate(269.380733 239.238437)scale(0.1 -0.1)">
       <use xlink:href="#DejaVuSans-53"/>
       <use x="63.623047" xlink:href="#DejaVuSans-48"/>
      </g>
     </g>
    </g>
    <g id="xtick_7">
     <g id="line2d_13">
      <path clip-path="url(#p5783687c64)" d="M 321.858936 224.64 
L 321.858936 7.2 
" style="fill:none;stroke:#b0b0b0;stroke-dasharray:0.4,0.66;stroke-dashoffset:0;stroke-width:0.4;"/>
     </g>
     <g id="line2d_14">
      <g>
       <use style="stroke:#000000;stroke-width:0.8;" x="321.858936" xlink:href="#mcaef95e2eb" y="224.64"/>
      </g>
     </g>
     <g id="text_7">
      <!-- 60 -->
      <defs>
       <path d="M 33.015625 40.375 
Q 26.375 40.375 22.484375 35.828125 
Q 18.609375 31.296875 18.609375 23.390625 
Q 18.609375 15.53125 22.484375 10.953125 
Q 26.375 6.390625 33.015625 6.390625 
Q 39.65625 6.390625 43.53125 10.953125 
Q 47.40625 15.53125 47.40625 23.390625 
Q 47.40625 31.296875 43.53125 35.828125 
Q 39.65625 40.375 33.015625 40.375 
z
M 52.59375 71.296875 
L 52.59375 62.3125 
Q 48.875 64.0625 45.09375 64.984375 
Q 41.3125 65.921875 37.59375 65.921875 
Q 27.828125 65.921875 22.671875 59.328125 
Q 17.53125 52.734375 16.796875 39.40625 
Q 19.671875 43.65625 24.015625 45.921875 
Q 28.375 48.1875 33.59375 48.1875 
Q 44.578125 48.1875 50.953125 41.515625 
Q 57.328125 34.859375 57.328125 23.390625 
Q 57.328125 12.15625 50.6875 5.359375 
Q 44.046875 -1.421875 33.015625 -1.421875 
Q 20.359375 -1.421875 13.671875 8.265625 
Q 6.984375 17.96875 6.984375 36.375 
Q 6.984375 53.65625 15.1875 63.9375 
Q 23.390625 74.21875 37.203125 74.21875 
Q 40.921875 74.21875 44.703125 73.484375 
Q 48.484375 72.75 52.59375 71.296875 
z
" id="DejaVuSans-54"/>
      </defs>
      <g transform="translate(315.496436 239.238437)scale(0.1 -0.1)">
       <use xlink:href="#DejaVuSans-54"/>
       <use x="63.623047" xlink:href="#DejaVuSans-48"/>
      </g>
     </g>
    </g>
    <g id="xtick_8">
     <g id="line2d_15">
      <path clip-path="url(#p5783687c64)" d="M 367.974638 224.64 
L 367.974638 7.2 
" style="fill:none;stroke:#b0b0b0;stroke-dasharray:0.4,0.66;stroke-dashoffset:0;stroke-width:0.4;"/>
     </g>
     <g id="line2d_16">
      <g>
       <use style="stroke:#000000;stroke-width:0.8;" x="367.974638" xlink:href="#mcaef95e2eb" y="224.64"/>
      </g>
     </g>
     <g id="text_8">
      <!-- 70 -->
      <defs>
       <path d="M 8.203125 72.90625 
L 55.078125 72.90625 
L 55.078125 68.703125 
L 28.609375 0 
L 18.3125 0 
L 43.21875 64.59375 
L 8.203125 64.59375 
z
" id="DejaVuSans-55"/>
      </defs>
      <g transform="translate(361.612138 239.238437)scale(0.1 -0.1)">
       <use xlink:href="#DejaVuSans-55"/>
       <use x="63.623047" xlink:href="#DejaVuSans-48"/>
      </g>
     </g>
    </g>
    <g id="text_9">
     <!-- Filter Size (WxW) -->
     <defs>
      <path d="M 9.8125 72.90625 
L 51.703125 72.90625 
L 51.703125 64.59375 
L 19.671875 64.59375 
L 19.671875 43.109375 
L 48.578125 43.109375 
L 48.578125 34.8125 
L 19.671875 34.8125 
L 19.671875 0 
L 9.8125 0 
z
" id="DejaVuSans-70"/>
      <path d="M 9.421875 54.6875 
L 18.40625 54.6875 
L 18.40625 0 
L 9.421875 0 
z
M 9.421875 75.984375 
L 18.40625 75.984375 
L 18.40625 64.59375 
L 9.421875 64.59375 
z
" id="DejaVuSans-105"/>
      <path d="M 9.421875 75.984375 
L 18.40625 75.984375 
L 18.40625 0 
L 9.421875 0 
z
" id="DejaVuSans-108"/>
      <path d="M 18.3125 70.21875 
L 18.3125 54.6875 
L 36.8125 54.6875 
L 36.8125 47.703125 
L 18.3125 47.703125 
L 18.3125 18.015625 
Q 18.3125 11.328125 20.140625 9.421875 
Q 21.96875 7.515625 27.59375 7.515625 
L 36.8125 7.515625 
L 36.8125 0 
L 27.59375 0 
Q 17.1875 0 13.234375 3.875 
Q 9.28125 7.765625 9.28125 18.015625 
L 9.28125 47.703125 
L 2.6875 47.703125 
L 2.6875 54.6875 
L 9.28125 54.6875 
L 9.28125 70.21875 
z
" id="DejaVuSans-116"/>
      <path d="M 56.203125 29.59375 
L 56.203125 25.203125 
L 14.890625 25.203125 
Q 15.484375 15.921875 20.484375 11.0625 
Q 25.484375 6.203125 34.421875 6.203125 
Q 39.59375 6.203125 44.453125 7.46875 
Q 49.3125 8.734375 54.109375 11.28125 
L 54.109375 2.78125 
Q 49.265625 0.734375 44.1875 -0.34375 
Q 39.109375 -1.421875 33.890625 -1.421875 
Q 20.796875 -1.421875 13.15625 6.1875 
Q 5.515625 13.8125 5.515625 26.8125 
Q 5.515625 40.234375 12.765625 48.109375 
Q 20.015625 56 32.328125 56 
Q 43.359375 56 49.78125 48.890625 
Q 56.203125 41.796875 56.203125 29.59375 
z
M 47.21875 32.234375 
Q 47.125 39.59375 43.09375 43.984375 
Q 39.0625 48.390625 32.421875 48.390625 
Q 24.90625 48.390625 20.390625 44.140625 
Q 15.875 39.890625 15.1875 32.171875 
z
" id="DejaVuSans-101"/>
      <path d="M 41.109375 46.296875 
Q 39.59375 47.171875 37.8125 47.578125 
Q 36.03125 48 33.890625 48 
Q 26.265625 48 22.1875 43.046875 
Q 18.109375 38.09375 18.109375 28.8125 
L 18.109375 0 
L 9.078125 0 
L 9.078125 54.6875 
L 18.109375 54.6875 
L 18.109375 46.1875 
Q 20.953125 51.171875 25.484375 53.578125 
Q 30.03125 56 36.53125 56 
Q 37.453125 56 38.578125 55.875 
Q 39.703125 55.765625 41.0625 55.515625 
z
" id="DejaVuSans-114"/>
      <path id="DejaVuSans-32"/>
      <path d="M 53.515625 70.515625 
L 53.515625 60.890625 
Q 47.90625 63.578125 42.921875 64.890625 
Q 37.9375 66.21875 33.296875 66.21875 
Q 25.25 66.21875 20.875 63.09375 
Q 16.5 59.96875 16.5 54.203125 
Q 16.5 49.359375 19.40625 46.890625 
Q 22.3125 44.4375 30.421875 42.921875 
L 36.375 41.703125 
Q 47.40625 39.59375 52.65625 34.296875 
Q 57.90625 29 57.90625 20.125 
Q 57.90625 9.515625 50.796875 4.046875 
Q 43.703125 -1.421875 29.984375 -1.421875 
Q 24.8125 -1.421875 18.96875 -0.25 
Q 13.140625 0.921875 6.890625 3.21875 
L 6.890625 13.375 
Q 12.890625 10.015625 18.65625 8.296875 
Q 24.421875 6.59375 29.984375 6.59375 
Q 38.421875 6.59375 43.015625 9.90625 
Q 47.609375 13.234375 47.609375 19.390625 
Q 47.609375 24.75 44.3125 27.78125 
Q 41.015625 30.8125 33.5 32.328125 
L 27.484375 33.5 
Q 16.453125 35.6875 11.515625 40.375 
Q 6.59375 45.0625 6.59375 53.421875 
Q 6.59375 63.09375 13.40625 68.65625 
Q 20.21875 74.21875 32.171875 74.21875 
Q 37.3125 74.21875 42.625 73.28125 
Q 47.953125 72.359375 53.515625 70.515625 
z
" id="DejaVuSans-83"/>
      <path d="M 5.515625 54.6875 
L 48.1875 54.6875 
L 48.1875 46.484375 
L 14.40625 7.171875 
L 48.1875 7.171875 
L 48.1875 0 
L 4.296875 0 
L 4.296875 8.203125 
L 38.09375 47.515625 
L 5.515625 47.515625 
z
" id="DejaVuSans-122"/>
      <path d="M 31 75.875 
Q 24.46875 64.65625 21.28125 53.65625 
Q 18.109375 42.671875 18.109375 31.390625 
Q 18.109375 20.125 21.3125 9.0625 
Q 24.515625 -2 31 -13.1875 
L 23.1875 -13.1875 
Q 15.875 -1.703125 12.234375 9.375 
Q 8.59375 20.453125 8.59375 31.390625 
Q 8.59375 42.28125 12.203125 53.3125 
Q 15.828125 64.359375 23.1875 75.875 
z
" id="DejaVuSans-40"/>
      <path d="M 3.328125 72.90625 
L 13.28125 72.90625 
L 28.609375 11.28125 
L 43.890625 72.90625 
L 54.984375 72.90625 
L 70.3125 11.28125 
L 85.59375 72.90625 
L 95.609375 72.90625 
L 77.296875 0 
L 64.890625 0 
L 49.515625 63.28125 
L 33.984375 0 
L 21.578125 0 
z
" id="DejaVuSans-87"/>
      <path d="M 54.890625 54.6875 
L 35.109375 28.078125 
L 55.90625 0 
L 45.3125 0 
L 29.390625 21.484375 
L 13.484375 0 
L 2.875 0 
L 24.125 28.609375 
L 4.6875 54.6875 
L 15.28125 54.6875 
L 29.78125 35.203125 
L 44.28125 54.6875 
z
" id="DejaVuSans-120"/>
      <path d="M 8.015625 75.875 
L 15.828125 75.875 
Q 23.140625 64.359375 26.78125 53.3125 
Q 30.421875 42.28125 30.421875 31.390625 
Q 30.421875 20.453125 26.78125 9.375 
Q 23.140625 -1.703125 15.828125 -13.1875 
L 8.015625 -13.1875 
Q 14.5 -2 17.703125 9.0625 
Q 20.90625 20.125 20.90625 31.390625 
Q 20.90625 42.671875 17.703125 53.65625 
Q 14.5 64.65625 8.015625 75.875 
z
" id="DejaVuSans-41"/>
     </defs>
     <g transform="translate(168.607031 252.916562)scale(0.1 -0.1)">
      <use xlink:href="#DejaVuSans-70"/>
      <use x="50.269531" xlink:href="#DejaVuSans-105"/>
      <use x="78.052734" xlink:href="#DejaVuSans-108"/>
      <use x="105.835938" xlink:href="#DejaVuSans-116"/>
      <use x="145.044922" xlink:href="#DejaVuSans-101"/>
      <use x="206.568359" xlink:href="#DejaVuSans-114"/>
      <use x="247.681641" xlink:href="#DejaVuSans-32"/>
      <use x="279.46875" xlink:href="#DejaVuSans-83"/>
      <use x="342.945312" xlink:href="#DejaVuSans-105"/>
      <use x="370.728516" xlink:href="#DejaVuSans-122"/>
      <use x="423.21875" xlink:href="#DejaVuSans-101"/>
      <use x="484.742188" xlink:href="#DejaVuSans-32"/>
      <use x="516.529297" xlink:href="#DejaVuSans-40"/>
      <use x="555.542969" xlink:href="#DejaVuSans-87"/>
      <use x="654.419922" xlink:href="#DejaVuSans-120"/>
      <use x="713.599609" xlink:href="#DejaVuSans-87"/>
      <use x="812.476562" xlink:href="#DejaVuSans-41"/>
     </g>
    </g>
   </g>
   <g id="matplotlib.axis_2">
    <g id="ytick_1">
     <g id="line2d_17">
      <path clip-path="url(#p5783687c64)" d="M 43.78125 184.320406 
L 378.58125 184.320406 
" style="fill:none;stroke:#b0b0b0;stroke-dasharray:0.4,0.66;stroke-dashoffset:0;stroke-width:0.4;"/>
     </g>
     <g id="line2d_18">
      <defs>
       <path d="M 0 0 
L -3.5 0 
" id="m369e259159" style="stroke:#000000;stroke-width:0.8;"/>
      </defs>
      <g>
       <use style="stroke:#000000;stroke-width:0.8;" x="43.78125" xlink:href="#m369e259159" y="184.320406"/>
      </g>
     </g>
     <g id="text_10">
      <!-- 0.8 -->
      <defs>
       <path d="M 10.6875 12.40625 
L 21 12.40625 
L 21 0 
L 10.6875 0 
z
" id="DejaVuSans-46"/>
       <path d="M 31.78125 34.625 
Q 24.75 34.625 20.71875 30.859375 
Q 16.703125 27.09375 16.703125 20.515625 
Q 16.703125 13.921875 20.71875 10.15625 
Q 24.75 6.390625 31.78125 6.390625 
Q 38.8125 6.390625 42.859375 10.171875 
Q 46.921875 13.96875 46.921875 20.515625 
Q 46.921875 27.09375 42.890625 30.859375 
Q 38.875 34.625 31.78125 34.625 
z
M 21.921875 38.8125 
Q 15.578125 40.375 12.03125 44.71875 
Q 8.5 49.078125 8.5 55.328125 
Q 8.5 64.0625 14.71875 69.140625 
Q 20.953125 74.21875 31.78125 74.21875 
Q 42.671875 74.21875 48.875 69.140625 
Q 55.078125 64.0625 55.078125 55.328125 
Q 55.078125 49.078125 51.53125 44.71875 
Q 48 40.375 41.703125 38.8125 
Q 48.828125 37.15625 52.796875 32.3125 
Q 56.78125 27.484375 56.78125 20.515625 
Q 56.78125 9.90625 50.3125 4.234375 
Q 43.84375 -1.421875 31.78125 -1.421875 
Q 19.734375 -1.421875 13.25 4.234375 
Q 6.78125 9.90625 6.78125 20.515625 
Q 6.78125 27.484375 10.78125 32.3125 
Q 14.796875 37.15625 21.921875 38.8125 
z
M 18.3125 54.390625 
Q 18.3125 48.734375 21.84375 45.5625 
Q 25.390625 42.390625 31.78125 42.390625 
Q 38.140625 42.390625 41.71875 45.5625 
Q 45.3125 48.734375 45.3125 54.390625 
Q 45.3125 60.0625 41.71875 63.234375 
Q 38.140625 66.40625 31.78125 66.40625 
Q 25.390625 66.40625 21.84375 63.234375 
Q 18.3125 60.0625 18.3125 54.390625 
z
" id="DejaVuSans-56"/>
      </defs>
      <g transform="translate(20.878125 188.119625)scale(0.1 -0.1)">
       <use xlink:href="#DejaVuSans-48"/>
       <use x="63.623047" xlink:href="#DejaVuSans-46"/>
       <use x="95.410156" xlink:href="#DejaVuSans-56"/>
      </g>
     </g>
    </g>
    <g id="ytick_2">
     <g id="line2d_19">
      <path clip-path="url(#p5783687c64)" d="M 43.78125 142.531011 
L 378.58125 142.531011 
" style="fill:none;stroke:#b0b0b0;stroke-dasharray:0.4,0.66;stroke-dashoffset:0;stroke-width:0.4;"/>
     </g>
     <g id="line2d_20">
      <g>
       <use style="stroke:#000000;stroke-width:0.8;" x="43.78125" xlink:href="#m369e259159" y="142.531011"/>
      </g>
     </g>
     <g id="text_11">
      <!-- 1.0 -->
      <g transform="translate(20.878125 146.330229)scale(0.1 -0.1)">
       <use xlink:href="#DejaVuSans-49"/>
       <use x="63.623047" xlink:href="#DejaVuSans-46"/>
       <use x="95.410156" xlink:href="#DejaVuSans-48"/>
      </g>
     </g>
    </g>
    <g id="ytick_3">
     <g id="line2d_21">
      <path clip-path="url(#p5783687c64)" d="M 43.78125 100.741616 
L 378.58125 100.741616 
" style="fill:none;stroke:#b0b0b0;stroke-dasharray:0.4,0.66;stroke-dashoffset:0;stroke-width:0.4;"/>
     </g>
     <g id="line2d_22">
      <g>
       <use style="stroke:#000000;stroke-width:0.8;" x="43.78125" xlink:href="#m369e259159" y="100.741616"/>
      </g>
     </g>
     <g id="text_12">
      <!-- 1.2 -->
      <g transform="translate(20.878125 104.540834)scale(0.1 -0.1)">
       <use xlink:href="#DejaVuSans-49"/>
       <use x="63.623047" xlink:href="#DejaVuSans-46"/>
       <use x="95.410156" xlink:href="#DejaVuSans-50"/>
      </g>
     </g>
    </g>
    <g id="ytick_4">
     <g id="line2d_23">
      <path clip-path="url(#p5783687c64)" d="M 43.78125 58.95222 
L 378.58125 58.95222 
" style="fill:none;stroke:#b0b0b0;stroke-dasharray:0.4,0.66;stroke-dashoffset:0;stroke-width:0.4;"/>
     </g>
     <g id="line2d_24">
      <g>
       <use style="stroke:#000000;stroke-width:0.8;" x="43.78125" xlink:href="#m369e259159" y="58.95222"/>
      </g>
     </g>
     <g id="text_13">
      <!-- 1.4 -->
      <g transform="translate(20.878125 62.751439)scale(0.1 -0.1)">
       <use xlink:href="#DejaVuSans-49"/>
       <use x="63.623047" xlink:href="#DejaVuSans-46"/>
       <use x="95.410156" xlink:href="#DejaVuSans-52"/>
      </g>
     </g>
    </g>
    <g id="ytick_5">
     <g id="line2d_25">
      <path clip-path="url(#p5783687c64)" d="M 43.78125 17.162825 
L 378.58125 17.162825 
" style="fill:none;stroke:#b0b0b0;stroke-dasharray:0.4,0.66;stroke-dashoffset:0;stroke-width:0.4;"/>
     </g>
     <g id="line2d_26">
      <g>
       <use style="stroke:#000000;stroke-width:0.8;" x="43.78125" xlink:href="#m369e259159" y="17.162825"/>
      </g>
     </g>
     <g id="text_14">
      <!-- 1.6 -->
      <g transform="translate(20.878125 20.962044)scale(0.1 -0.1)">
       <use xlink:href="#DejaVuSans-49"/>
       <use x="63.623047" xlink:href="#DejaVuSans-46"/>
       <use x="95.410156" xlink:href="#DejaVuSans-54"/>
      </g>
     </g>
    </g>
    <g id="text_15">
     <!-- Execution Time (s) -->
     <defs>
      <path d="M 9.8125 72.90625 
L 55.90625 72.90625 
L 55.90625 64.59375 
L 19.671875 64.59375 
L 19.671875 43.015625 
L 54.390625 43.015625 
L 54.390625 34.71875 
L 19.671875 34.71875 
L 19.671875 8.296875 
L 56.78125 8.296875 
L 56.78125 0 
L 9.8125 0 
z
" id="DejaVuSans-69"/>
      <path d="M 48.78125 52.59375 
L 48.78125 44.1875 
Q 44.96875 46.296875 41.140625 47.34375 
Q 37.3125 48.390625 33.40625 48.390625 
Q 24.65625 48.390625 19.8125 42.84375 
Q 14.984375 37.3125 14.984375 27.296875 
Q 14.984375 17.28125 19.8125 11.734375 
Q 24.65625 6.203125 33.40625 6.203125 
Q 37.3125 6.203125 41.140625 7.25 
Q 44.96875 8.296875 48.78125 10.40625 
L 48.78125 2.09375 
Q 45.015625 0.34375 40.984375 -0.53125 
Q 36.96875 -1.421875 32.421875 -1.421875 
Q 20.0625 -1.421875 12.78125 6.34375 
Q 5.515625 14.109375 5.515625 27.296875 
Q 5.515625 40.671875 12.859375 48.328125 
Q 20.21875 56 33.015625 56 
Q 37.15625 56 41.109375 55.140625 
Q 45.0625 54.296875 48.78125 52.59375 
z
" id="DejaVuSans-99"/>
      <path d="M 8.5 21.578125 
L 8.5 54.6875 
L 17.484375 54.6875 
L 17.484375 21.921875 
Q 17.484375 14.15625 20.5 10.265625 
Q 23.53125 6.390625 29.59375 6.390625 
Q 36.859375 6.390625 41.078125 11.03125 
Q 45.3125 15.671875 45.3125 23.6875 
L 45.3125 54.6875 
L 54.296875 54.6875 
L 54.296875 0 
L 45.3125 0 
L 45.3125 8.40625 
Q 42.046875 3.421875 37.71875 1 
Q 33.40625 -1.421875 27.6875 -1.421875 
Q 18.265625 -1.421875 13.375 4.4375 
Q 8.5 10.296875 8.5 21.578125 
z
M 31.109375 56 
z
" id="DejaVuSans-117"/>
      <path d="M 30.609375 48.390625 
Q 23.390625 48.390625 19.1875 42.75 
Q 14.984375 37.109375 14.984375 27.296875 
Q 14.984375 17.484375 19.15625 11.84375 
Q 23.34375 6.203125 30.609375 6.203125 
Q 37.796875 6.203125 41.984375 11.859375 
Q 46.1875 17.53125 46.1875 27.296875 
Q 46.1875 37.015625 41.984375 42.703125 
Q 37.796875 48.390625 30.609375 48.390625 
z
M 30.609375 56 
Q 42.328125 56 49.015625 48.375 
Q 55.71875 40.765625 55.71875 27.296875 
Q 55.71875 13.875 49.015625 6.21875 
Q 42.328125 -1.421875 30.609375 -1.421875 
Q 18.84375 -1.421875 12.171875 6.21875 
Q 5.515625 13.875 5.515625 27.296875 
Q 5.515625 40.765625 12.171875 48.375 
Q 18.84375 56 30.609375 56 
z
" id="DejaVuSans-111"/>
      <path d="M 54.890625 33.015625 
L 54.890625 0 
L 45.90625 0 
L 45.90625 32.71875 
Q 45.90625 40.484375 42.875 44.328125 
Q 39.84375 48.1875 33.796875 48.1875 
Q 26.515625 48.1875 22.3125 43.546875 
Q 18.109375 38.921875 18.109375 30.90625 
L 18.109375 0 
L 9.078125 0 
L 9.078125 54.6875 
L 18.109375 54.6875 
L 18.109375 46.1875 
Q 21.34375 51.125 25.703125 53.5625 
Q 30.078125 56 35.796875 56 
Q 45.21875 56 50.046875 50.171875 
Q 54.890625 44.34375 54.890625 33.015625 
z
" id="DejaVuSans-110"/>
      <path d="M -0.296875 72.90625 
L 61.375 72.90625 
L 61.375 64.59375 
L 35.5 64.59375 
L 35.5 0 
L 25.59375 0 
L 25.59375 64.59375 
L -0.296875 64.59375 
z
" id="DejaVuSans-84"/>
      <path d="M 52 44.1875 
Q 55.375 50.25 60.0625 53.125 
Q 64.75 56 71.09375 56 
Q 79.640625 56 84.28125 50.015625 
Q 88.921875 44.046875 88.921875 33.015625 
L 88.921875 0 
L 79.890625 0 
L 79.890625 32.71875 
Q 79.890625 40.578125 77.09375 44.375 
Q 74.3125 48.1875 68.609375 48.1875 
Q 61.625 48.1875 57.5625 43.546875 
Q 53.515625 38.921875 53.515625 30.90625 
L 53.515625 0 
L 44.484375 0 
L 44.484375 32.71875 
Q 44.484375 40.625 41.703125 44.40625 
Q 38.921875 48.1875 33.109375 48.1875 
Q 26.21875 48.1875 22.15625 43.53125 
Q 18.109375 38.875 18.109375 30.90625 
L 18.109375 0 
L 9.078125 0 
L 9.078125 54.6875 
L 18.109375 54.6875 
L 18.109375 46.1875 
Q 21.1875 51.21875 25.484375 53.609375 
Q 29.78125 56 35.6875 56 
Q 41.65625 56 45.828125 52.96875 
Q 50 49.953125 52 44.1875 
z
" id="DejaVuSans-109"/>
      <path d="M 44.28125 53.078125 
L 44.28125 44.578125 
Q 40.484375 46.53125 36.375 47.5 
Q 32.28125 48.484375 27.875 48.484375 
Q 21.1875 48.484375 17.84375 46.4375 
Q 14.5 44.390625 14.5 40.28125 
Q 14.5 37.15625 16.890625 35.375 
Q 19.28125 33.59375 26.515625 31.984375 
L 29.59375 31.296875 
Q 39.15625 29.25 43.1875 25.515625 
Q 47.21875 21.78125 47.21875 15.09375 
Q 47.21875 7.46875 41.1875 3.015625 
Q 35.15625 -1.421875 24.609375 -1.421875 
Q 20.21875 -1.421875 15.453125 -0.5625 
Q 10.6875 0.296875 5.421875 2 
L 5.421875 11.28125 
Q 10.40625 8.6875 15.234375 7.390625 
Q 20.0625 6.109375 24.8125 6.109375 
Q 31.15625 6.109375 34.5625 8.28125 
Q 37.984375 10.453125 37.984375 14.40625 
Q 37.984375 18.0625 35.515625 20.015625 
Q 33.0625 21.96875 24.703125 23.78125 
L 21.578125 24.515625 
Q 13.234375 26.265625 9.515625 29.90625 
Q 5.8125 33.546875 5.8125 39.890625 
Q 5.8125 47.609375 11.28125 51.796875 
Q 16.75 56 26.8125 56 
Q 31.78125 56 36.171875 55.265625 
Q 40.578125 54.546875 44.28125 53.078125 
z
" id="DejaVuSans-115"/>
     </defs>
     <g transform="translate(14.798438 162.372344)rotate(-90)scale(0.1 -0.1)">
      <use xlink:href="#DejaVuSans-69"/>
      <use x="63.183594" xlink:href="#DejaVuSans-120"/>
      <use x="119.238281" xlink:href="#DejaVuSans-101"/>
      <use x="180.761719" xlink:href="#DejaVuSans-99"/>
      <use x="235.742188" xlink:href="#DejaVuSans-117"/>
      <use x="299.121094" xlink:href="#DejaVuSans-116"/>
      <use x="338.330078" xlink:href="#DejaVuSans-105"/>
      <use x="366.113281" xlink:href="#DejaVuSans-111"/>
      <use x="427.294922" xlink:href="#DejaVuSans-110"/>
      <use x="490.673828" xlink:href="#DejaVuSans-32"/>
      <use x="522.460938" xlink:href="#DejaVuSans-84"/>
      <use x="580.419922" xlink:href="#DejaVuSans-105"/>
      <use x="608.203125" xlink:href="#DejaVuSans-109"/>
      <use x="705.615234" xlink:href="#DejaVuSans-101"/>
      <use x="767.138672" xlink:href="#DejaVuSans-32"/>
      <use x="798.925781" xlink:href="#DejaVuSans-40"/>
      <use x="837.939453" xlink:href="#DejaVuSans-115"/>
      <use x="890.039062" xlink:href="#DejaVuSans-41"/>
     </g>
    </g>
   </g>
   <g id="line2d_27">
    <path clip-path="url(#p5783687c64)" d="M 58.999432 67.241324 
L 68.222572 77.871541 
L 77.445713 84.793292 
L 86.668853 87.386657 
L 95.891994 92.23807 
L 105.115134 90.405308 
L 114.338275 90.322513 
L 123.561415 90.723788 
L 132.784556 93.59523 
L 142.007696 94.225961 
L 151.230837 94.535274 
L 160.453977 98.178081 
L 169.677118 98.32529 
L 178.900258 99.907124 
L 188.123399 100.555689 
L 197.346539 101.588044 
L 206.56968 103.2182 
L 215.79282 101.941046 
L 225.015961 104.249309 
L 234.239101 102.54901 
L 243.462242 99.0977 
L 252.685382 97.765946 
L 261.908523 106.538443 
L 271.131663 106.445136 
L 280.354804 107.419653 
L 289.577944 110.34699 
L 298.801085 115.106292 
L 308.024225 113.707833 
L 317.247366 113.941375 
L 326.470506 118.195185 
L 335.693647 120.428374 
L 344.916787 117.008797 
L 354.139928 125.403234 
L 363.363068 123.150366 
" style="fill:none;stroke:#1f77b4;stroke-linecap:square;stroke-width:1.5;"/>
    <defs>
     <path d="M 0 3 
C 0.795609 3 1.55874 2.683901 2.12132 2.12132 
C 2.683901 1.55874 3 0.795609 3 0 
C 3 -0.795609 2.683901 -1.55874 2.12132 -2.12132 
C 1.55874 -2.683901 0.795609 -3 0 -3 
C -0.795609 -3 -1.55874 -2.683901 -2.12132 -2.12132 
C -2.683901 -1.55874 -3 -0.795609 -3 0 
C -3 0.795609 -2.683901 1.55874 -2.12132 2.12132 
C -1.55874 2.683901 -0.795609 3 0 3 
z
" id="m9427760bd3" style="stroke:#1f77b4;"/>
    </defs>
    <g clip-path="url(#p5783687c64)">
     <use style="fill:#0000ff;stroke:#1f77b4;" x="58.999432" xlink:href="#m9427760bd3" y="67.241324"/>
     <use style="fill:#0000ff;stroke:#1f77b4;" x="68.222572" xlink:href="#m9427760bd3" y="77.871541"/>
     <use style="fill:#0000ff;stroke:#1f77b4;" x="77.445713" xlink:href="#m9427760bd3" y="84.793292"/>
     <use style="fill:#0000ff;stroke:#1f77b4;" x="86.668853" xlink:href="#m9427760bd3" y="87.386657"/>
     <use style="fill:#0000ff;stroke:#1f77b4;" x="95.891994" xlink:href="#m9427760bd3" y="92.23807"/>
     <use style="fill:#0000ff;stroke:#1f77b4;" x="105.115134" xlink:href="#m9427760bd3" y="90.405308"/>
     <use style="fill:#0000ff;stroke:#1f77b4;" x="114.338275" xlink:href="#m9427760bd3" y="90.322513"/>
     <use style="fill:#0000ff;stroke:#1f77b4;" x="123.561415" xlink:href="#m9427760bd3" y="90.723788"/>
     <use style="fill:#0000ff;stroke:#1f77b4;" x="132.784556" xlink:href="#m9427760bd3" y="93.59523"/>
     <use style="fill:#0000ff;stroke:#1f77b4;" x="142.007696" xlink:href="#m9427760bd3" y="94.225961"/>
     <use style="fill:#0000ff;stroke:#1f77b4;" x="151.230837" xlink:href="#m9427760bd3" y="94.535274"/>
     <use style="fill:#0000ff;stroke:#1f77b4;" x="160.453977" xlink:href="#m9427760bd3" y="98.178081"/>
     <use style="fill:#0000ff;stroke:#1f77b4;" x="169.677118" xlink:href="#m9427760bd3" y="98.32529"/>
     <use style="fill:#0000ff;stroke:#1f77b4;" x="178.900258" xlink:href="#m9427760bd3" y="99.907124"/>
     <use style="fill:#0000ff;stroke:#1f77b4;" x="188.123399" xlink:href="#m9427760bd3" y="100.555689"/>
     <use style="fill:#0000ff;stroke:#1f77b4;" x="197.346539" xlink:href="#m9427760bd3" y="101.588044"/>
     <use style="fill:#0000ff;stroke:#1f77b4;" x="206.56968" xlink:href="#m9427760bd3" y="103.2182"/>
     <use style="fill:#0000ff;stroke:#1f77b4;" x="215.79282" xlink:href="#m9427760bd3" y="101.941046"/>
     <use style="fill:#0000ff;stroke:#1f77b4;" x="225.015961" xlink:href="#m9427760bd3" y="104.249309"/>
     <use style="fill:#0000ff;stroke:#1f77b4;" x="234.239101" xlink:href="#m9427760bd3" y="102.54901"/>
     <use style="fill:#0000ff;stroke:#1f77b4;" x="243.462242" xlink:href="#m9427760bd3" y="99.0977"/>
     <use style="fill:#0000ff;stroke:#1f77b4;" x="252.685382" xlink:href="#m9427760bd3" y="97.765946"/>
     <use style="fill:#0000ff;stroke:#1f77b4;" x="261.908523" xlink:href="#m9427760bd3" y="106.538443"/>
     <use style="fill:#0000ff;stroke:#1f77b4;" x="271.131663" xlink:href="#m9427760bd3" y="106.445136"/>
     <use style="fill:#0000ff;stroke:#1f77b4;" x="280.354804" xlink:href="#m9427760bd3" y="107.419653"/>
     <use style="fill:#0000ff;stroke:#1f77b4;" x="289.577944" xlink:href="#m9427760bd3" y="110.34699"/>
     <use style="fill:#0000ff;stroke:#1f77b4;" x="298.801085" xlink:href="#m9427760bd3" y="115.106292"/>
     <use style="fill:#0000ff;stroke:#1f77b4;" x="308.024225" xlink:href="#m9427760bd3" y="113.707833"/>
     <use style="fill:#0000ff;stroke:#1f77b4;" x="317.247366" xlink:href="#m9427760bd3" y="113.941375"/>
     <use style="fill:#0000ff;stroke:#1f77b4;" x="326.470506" xlink:href="#m9427760bd3" y="118.195185"/>
     <use style="fill:#0000ff;stroke:#1f77b4;" x="335.693647" xlink:href="#m9427760bd3" y="120.428374"/>
     <use style="fill:#0000ff;stroke:#1f77b4;" x="344.916787" xlink:href="#m9427760bd3" y="117.008797"/>
     <use style="fill:#0000ff;stroke:#1f77b4;" x="354.139928" xlink:href="#m9427760bd3" y="125.403234"/>
     <use style="fill:#0000ff;stroke:#1f77b4;" x="363.363068" xlink:href="#m9427760bd3" y="123.150366"/>
    </g>
   </g>
   <g id="line2d_28">
    <path clip-path="url(#p5783687c64)" d="M 58.999432 214.756364 
L 68.222572 214.676906 
L 77.445713 207.103849 
L 86.668853 184.677951 
L 95.891994 192.693381 
L 105.115134 205.587026 
L 114.338275 203.249072 
L 123.561415 196.58039 
L 132.784556 172.4118 
L 142.007696 192.023445 
L 151.230837 180.594714 
L 160.453977 173.87781 
L 169.677118 169.549473 
L 178.900258 166.851194 
L 188.123399 163.962365 
L 197.346539 137.092705 
L 206.56968 133.555261 
L 215.79282 126.654284 
L 225.015961 122.460353 
L 234.239101 127.021882 
L 243.462242 124.192535 
L 252.685382 119.457992 
L 261.908523 97.435909 
L 271.131663 97.803458 
L 280.354804 90.070838 
L 289.577944 83.698866 
L 298.801085 79.819778 
L 308.024225 74.952224 
L 317.247366 68.617714 
L 326.470506 36.857086 
L 335.693647 38.667381 
L 344.916787 39.835635 
L 354.139928 17.083636 
L 363.363068 19.722036 
" style="fill:none;stroke:#ff7f0e;stroke-linecap:square;stroke-width:1.5;"/>
    <defs>
     <path d="M 0 3 
C 0.795609 3 1.55874 2.683901 2.12132 2.12132 
C 2.683901 1.55874 3 0.795609 3 0 
C 3 -0.795609 2.683901 -1.55874 2.12132 -2.12132 
C 1.55874 -2.683901 0.795609 -3 0 -3 
C -0.795609 -3 -1.55874 -2.683901 -2.12132 -2.12132 
C -2.683901 -1.55874 -3 -0.795609 -3 0 
C -3 0.795609 -2.683901 1.55874 -2.12132 2.12132 
C -1.55874 2.683901 -0.795609 3 0 3 
z
" id="m8eafb16c11" style="stroke:#ff7f0e;"/>
    </defs>
    <g clip-path="url(#p5783687c64)">
     <use style="fill:#ff0000;stroke:#ff7f0e;" x="58.999432" xlink:href="#m8eafb16c11" y="214.756364"/>
     <use style="fill:#ff0000;stroke:#ff7f0e;" x="68.222572" xlink:href="#m8eafb16c11" y="214.676906"/>
     <use style="fill:#ff0000;stroke:#ff7f0e;" x="77.445713" xlink:href="#m8eafb16c11" y="207.103849"/>
     <use style="fill:#ff0000;stroke:#ff7f0e;" x="86.668853" xlink:href="#m8eafb16c11" y="184.677951"/>
     <use style="fill:#ff0000;stroke:#ff7f0e;" x="95.891994" xlink:href="#m8eafb16c11" y="192.693381"/>
     <use style="fill:#ff0000;stroke:#ff7f0e;" x="105.115134" xlink:href="#m8eafb16c11" y="205.587026"/>
     <use style="fill:#ff0000;stroke:#ff7f0e;" x="114.338275" xlink:href="#m8eafb16c11" y="203.249072"/>
     <use style="fill:#ff0000;stroke:#ff7f0e;" x="123.561415" xlink:href="#m8eafb16c11" y="196.58039"/>
     <use style="fill:#ff0000;stroke:#ff7f0e;" x="132.784556" xlink:href="#m8eafb16c11" y="172.4118"/>
     <use style="fill:#ff0000;stroke:#ff7f0e;" x="142.007696" xlink:href="#m8eafb16c11" y="192.023445"/>
     <use style="fill:#ff0000;stroke:#ff7f0e;" x="151.230837" xlink:href="#m8eafb16c11" y="180.594714"/>
     <use style="fill:#ff0000;stroke:#ff7f0e;" x="160.453977" xlink:href="#m8eafb16c11" y="173.87781"/>
     <use style="fill:#ff0000;stroke:#ff7f0e;" x="169.677118" xlink:href="#m8eafb16c11" y="169.549473"/>
     <use style="fill:#ff0000;stroke:#ff7f0e;" x="178.900258" xlink:href="#m8eafb16c11" y="166.851194"/>
     <use style="fill:#ff0000;stroke:#ff7f0e;" x="188.123399" xlink:href="#m8eafb16c11" y="163.962365"/>
     <use style="fill:#ff0000;stroke:#ff7f0e;" x="197.346539" xlink:href="#m8eafb16c11" y="137.092705"/>
     <use style="fill:#ff0000;stroke:#ff7f0e;" x="206.56968" xlink:href="#m8eafb16c11" y="133.555261"/>
     <use style="fill:#ff0000;stroke:#ff7f0e;" x="215.79282" xlink:href="#m8eafb16c11" y="126.654284"/>
     <use style="fill:#ff0000;stroke:#ff7f0e;" x="225.015961" xlink:href="#m8eafb16c11" y="122.460353"/>
     <use style="fill:#ff0000;stroke:#ff7f0e;" x="234.239101" xlink:href="#m8eafb16c11" y="127.021882"/>
     <use style="fill:#ff0000;stroke:#ff7f0e;" x="243.462242" xlink:href="#m8eafb16c11" y="124.192535"/>
     <use style="fill:#ff0000;stroke:#ff7f0e;" x="252.685382" xlink:href="#m8eafb16c11" y="119.457992"/>
     <use style="fill:#ff0000;stroke:#ff7f0e;" x="261.908523" xlink:href="#m8eafb16c11" y="97.435909"/>
     <use style="fill:#ff0000;stroke:#ff7f0e;" x="271.131663" xlink:href="#m8eafb16c11" y="97.803458"/>
     <use style="fill:#ff0000;stroke:#ff7f0e;" x="280.354804" xlink:href="#m8eafb16c11" y="90.070838"/>
     <use style="fill:#ff0000;stroke:#ff7f0e;" x="289.577944" xlink:href="#m8eafb16c11" y="83.698866"/>
     <use style="fill:#ff0000;stroke:#ff7f0e;" x="298.801085" xlink:href="#m8eafb16c11" y="79.819778"/>
     <use style="fill:#ff0000;stroke:#ff7f0e;" x="308.024225" xlink:href="#m8eafb16c11" y="74.952224"/>
     <use style="fill:#ff0000;stroke:#ff7f0e;" x="317.247366" xlink:href="#m8eafb16c11" y="68.617714"/>
     <use style="fill:#ff0000;stroke:#ff7f0e;" x="326.470506" xlink:href="#m8eafb16c11" y="36.857086"/>
     <use style="fill:#ff0000;stroke:#ff7f0e;" x="335.693647" xlink:href="#m8eafb16c11" y="38.667381"/>
     <use style="fill:#ff0000;stroke:#ff7f0e;" x="344.916787" xlink:href="#m8eafb16c11" y="39.835635"/>
     <use style="fill:#ff0000;stroke:#ff7f0e;" x="354.139928" xlink:href="#m8eafb16c11" y="17.083636"/>
     <use style="fill:#ff0000;stroke:#ff7f0e;" x="363.363068" xlink:href="#m8eafb16c11" y="19.722036"/>
    </g>
   </g>
   <g id="patch_3">
    <path d="M 43.78125 224.64 
L 43.78125 7.2 
" style="fill:none;stroke:#000000;stroke-linecap:square;stroke-linejoin:miter;stroke-width:0.8;"/>
   </g>
   <g id="patch_4">
    <path d="M 378.58125 224.64 
L 378.58125 7.2 
" style="fill:none;stroke:#000000;stroke-linecap:square;stroke-linejoin:miter;stroke-width:0.8;"/>
   </g>
   <g id="patch_5">
    <path d="M 43.78125 224.64 
L 378.58125 224.64 
" style="fill:none;stroke:#000000;stroke-linecap:square;stroke-linejoin:miter;stroke-width:0.8;"/>
   </g>
   <g id="patch_6">
    <path d="M 43.78125 7.2 
L 378.58125 7.2 
" style="fill:none;stroke:#000000;stroke-linecap:square;stroke-linejoin:miter;stroke-width:0.8;"/>
   </g>
   <g id="legend_1">
    <g id="patch_7">
     <path d="M 50.78125 44.55625 
L 184.815625 44.55625 
Q 186.815625 44.55625 186.815625 42.55625 
L 186.815625 14.2 
Q 186.815625 12.2 184.815625 12.2 
L 50.78125 12.2 
Q 48.78125 12.2 48.78125 14.2 
L 48.78125 42.55625 
Q 48.78125 44.55625 50.78125 44.55625 
z
" style="fill:#ffffff;opacity:0.8;stroke:#cccccc;stroke-linejoin:miter;"/>
    </g>
    <g id="line2d_29">
     <path d="M 52.78125 20.298437 
L 72.78125 20.298437 
" style="fill:none;stroke:#1f77b4;stroke-linecap:square;stroke-width:1.5;"/>
    </g>
    <g id="line2d_30">
     <g>
      <use style="fill:#0000ff;stroke:#1f77b4;" x="62.78125" xlink:href="#m9427760bd3" y="20.298437"/>
     </g>
    </g>
    <g id="text_16">
     <!-- 1D Separated Filters -->
     <defs>
      <path d="M 19.671875 64.796875 
L 19.671875 8.109375 
L 31.59375 8.109375 
Q 46.6875 8.109375 53.6875 14.9375 
Q 60.6875 21.78125 60.6875 36.53125 
Q 60.6875 51.171875 53.6875 57.984375 
Q 46.6875 64.796875 31.59375 64.796875 
z
M 9.8125 72.90625 
L 30.078125 72.90625 
Q 51.265625 72.90625 61.171875 64.09375 
Q 71.09375 55.28125 71.09375 36.53125 
Q 71.09375 17.671875 61.125 8.828125 
Q 51.171875 0 30.078125 0 
L 9.8125 0 
z
" id="DejaVuSans-68"/>
      <path d="M 18.109375 8.203125 
L 18.109375 -20.796875 
L 9.078125 -20.796875 
L 9.078125 54.6875 
L 18.109375 54.6875 
L 18.109375 46.390625 
Q 20.953125 51.265625 25.265625 53.625 
Q 29.59375 56 35.59375 56 
Q 45.5625 56 51.78125 48.09375 
Q 58.015625 40.1875 58.015625 27.296875 
Q 58.015625 14.40625 51.78125 6.484375 
Q 45.5625 -1.421875 35.59375 -1.421875 
Q 29.59375 -1.421875 25.265625 0.953125 
Q 20.953125 3.328125 18.109375 8.203125 
z
M 48.6875 27.296875 
Q 48.6875 37.203125 44.609375 42.84375 
Q 40.53125 48.484375 33.40625 48.484375 
Q 26.265625 48.484375 22.1875 42.84375 
Q 18.109375 37.203125 18.109375 27.296875 
Q 18.109375 17.390625 22.1875 11.75 
Q 26.265625 6.109375 33.40625 6.109375 
Q 40.53125 6.109375 44.609375 11.75 
Q 48.6875 17.390625 48.6875 27.296875 
z
" id="DejaVuSans-112"/>
      <path d="M 34.28125 27.484375 
Q 23.390625 27.484375 19.1875 25 
Q 14.984375 22.515625 14.984375 16.5 
Q 14.984375 11.71875 18.140625 8.90625 
Q 21.296875 6.109375 26.703125 6.109375 
Q 34.1875 6.109375 38.703125 11.40625 
Q 43.21875 16.703125 43.21875 25.484375 
L 43.21875 27.484375 
z
M 52.203125 31.203125 
L 52.203125 0 
L 43.21875 0 
L 43.21875 8.296875 
Q 40.140625 3.328125 35.546875 0.953125 
Q 30.953125 -1.421875 24.3125 -1.421875 
Q 15.921875 -1.421875 10.953125 3.296875 
Q 6 8.015625 6 15.921875 
Q 6 25.140625 12.171875 29.828125 
Q 18.359375 34.515625 30.609375 34.515625 
L 43.21875 34.515625 
L 43.21875 35.40625 
Q 43.21875 41.609375 39.140625 45 
Q 35.0625 48.390625 27.6875 48.390625 
Q 23 48.390625 18.546875 47.265625 
Q 14.109375 46.140625 10.015625 43.890625 
L 10.015625 52.203125 
Q 14.9375 54.109375 19.578125 55.046875 
Q 24.21875 56 28.609375 56 
Q 40.484375 56 46.34375 49.84375 
Q 52.203125 43.703125 52.203125 31.203125 
z
" id="DejaVuSans-97"/>
      <path d="M 45.40625 46.390625 
L 45.40625 75.984375 
L 54.390625 75.984375 
L 54.390625 0 
L 45.40625 0 
L 45.40625 8.203125 
Q 42.578125 3.328125 38.25 0.953125 
Q 33.9375 -1.421875 27.875 -1.421875 
Q 17.96875 -1.421875 11.734375 6.484375 
Q 5.515625 14.40625 5.515625 27.296875 
Q 5.515625 40.1875 11.734375 48.09375 
Q 17.96875 56 27.875 56 
Q 33.9375 56 38.25 53.625 
Q 42.578125 51.265625 45.40625 46.390625 
z
M 14.796875 27.296875 
Q 14.796875 17.390625 18.875 11.75 
Q 22.953125 6.109375 30.078125 6.109375 
Q 37.203125 6.109375 41.296875 11.75 
Q 45.40625 17.390625 45.40625 27.296875 
Q 45.40625 37.203125 41.296875 42.84375 
Q 37.203125 48.484375 30.078125 48.484375 
Q 22.953125 48.484375 18.875 42.84375 
Q 14.796875 37.203125 14.796875 27.296875 
z
" id="DejaVuSans-100"/>
     </defs>
     <g transform="translate(80.78125 23.798437)scale(0.1 -0.1)">
      <use xlink:href="#DejaVuSans-49"/>
      <use x="63.623047" xlink:href="#DejaVuSans-68"/>
      <use x="140.625" xlink:href="#DejaVuSans-32"/>
      <use x="172.412109" xlink:href="#DejaVuSans-83"/>
      <use x="235.888672" xlink:href="#DejaVuSans-101"/>
      <use x="297.412109" xlink:href="#DejaVuSans-112"/>
      <use x="360.888672" xlink:href="#DejaVuSans-97"/>
      <use x="422.167969" xlink:href="#DejaVuSans-114"/>
      <use x="463.28125" xlink:href="#DejaVuSans-97"/>
      <use x="524.560547" xlink:href="#DejaVuSans-116"/>
      <use x="563.769531" xlink:href="#DejaVuSans-101"/>
      <use x="625.292969" xlink:href="#DejaVuSans-100"/>
      <use x="688.769531" xlink:href="#DejaVuSans-32"/>
      <use x="720.556641" xlink:href="#DejaVuSans-70"/>
      <use x="770.826172" xlink:href="#DejaVuSans-105"/>
      <use x="798.609375" xlink:href="#DejaVuSans-108"/>
      <use x="826.392578" xlink:href="#DejaVuSans-116"/>
      <use x="865.601562" xlink:href="#DejaVuSans-101"/>
      <use x="927.125" xlink:href="#DejaVuSans-114"/>
      <use x="968.238281" xlink:href="#DejaVuSans-115"/>
     </g>
    </g>
    <g id="line2d_31">
     <path d="M 52.78125 34.976562 
L 72.78125 34.976562 
" style="fill:none;stroke:#ff7f0e;stroke-linecap:square;stroke-width:1.5;"/>
    </g>
    <g id="line2d_32">
     <g>
      <use style="fill:#ff0000;stroke:#ff7f0e;" x="62.78125" xlink:href="#m8eafb16c11" y="34.976562"/>
     </g>
    </g>
    <g id="text_17">
     <!-- 2D Whole Filter -->
     <defs>
      <path d="M 54.890625 33.015625 
L 54.890625 0 
L 45.90625 0 
L 45.90625 32.71875 
Q 45.90625 40.484375 42.875 44.328125 
Q 39.84375 48.1875 33.796875 48.1875 
Q 26.515625 48.1875 22.3125 43.546875 
Q 18.109375 38.921875 18.109375 30.90625 
L 18.109375 0 
L 9.078125 0 
L 9.078125 75.984375 
L 18.109375 75.984375 
L 18.109375 46.1875 
Q 21.34375 51.125 25.703125 53.5625 
Q 30.078125 56 35.796875 56 
Q 45.21875 56 50.046875 50.171875 
Q 54.890625 44.34375 54.890625 33.015625 
z
" id="DejaVuSans-104"/>
     </defs>
     <g transform="translate(80.78125 38.476562)scale(0.1 -0.1)">
      <use xlink:href="#DejaVuSans-50"/>
      <use x="63.623047" xlink:href="#DejaVuSans-68"/>
      <use x="140.625" xlink:href="#DejaVuSans-32"/>
      <use x="172.412109" xlink:href="#DejaVuSans-87"/>
      <use x="271.289062" xlink:href="#DejaVuSans-104"/>
      <use x="334.667969" xlink:href="#DejaVuSans-111"/>
      <use x="395.849609" xlink:href="#DejaVuSans-108"/>
      <use x="423.632812" xlink:href="#DejaVuSans-101"/>
      <use x="485.15625" xlink:href="#DejaVuSans-32"/>
      <use x="516.943359" xlink:href="#DejaVuSans-70"/>
      <use x="567.212891" xlink:href="#DejaVuSans-105"/>
      <use x="594.996094" xlink:href="#DejaVuSans-108"/>
      <use x="622.779297" xlink:href="#DejaVuSans-116"/>
      <use x="661.988281" xlink:href="#DejaVuSans-101"/>
      <use x="723.511719" xlink:href="#DejaVuSans-114"/>
     </g>
    </g>
   </g>
  </g>
 </g>
 <defs>
  <clipPath id="p5783687c64">
   <rect height="217.44" width="334.8" x="43.78125" y="7.2"/>
  </clipPath>
 </defs>
</svg>
